<svg width="230" height="230" viewBox="0 0 230 230" fill="none" xmlns="http://www.w3.org/2000/svg">
<circle cx="115.5" cy="114.5" r="98.5" fill="#E0EAFA"/>
<path fill-rule="evenodd" clip-rule="evenodd" d="M142.159 188.674C162.404 178.525 176.3 157.582 176.3 133.393C176.3 99.2618 127.885 47.3853 114.5 34C112.346 36.1537 109.337 39.2487 105.796 43.0684L152.662 104.059C157.557 111.596 167.115 129.336 164.061 140.846C158.545 134.078 147.678 119.817 136.393 105.01C134.461 102.474 132.517 99.9227 130.585 97.3899L119.72 110.897L155.51 161.365L149.814 167.415L119.72 129.395L109.148 142.315L142.159 188.674ZM133.706 192.151C127.661 194.126 121.205 195.194 114.5 195.194C80.3686 195.194 52.6996 167.525 52.6996 133.393C52.6996 108.854 77.5786 75.2893 96.6428 53.2813L117.958 80.6533L106.505 96.2154L93.8785 80.6533C92.4286 82.6734 90.728 84.8739 88.8958 87.2448C75.6369 104.401 55.4838 130.479 73.5437 161.694C86.2382 183.635 116.196 183.52 126.767 181.073L133.706 192.151Z" fill="url(#paint0_radial_7_38)"/>
<defs>
<radialGradient id="paint0_radial_7_38" cx="0" cy="0" r="1" gradientUnits="userSpaceOnUse" gradientTransform="translate(74.344 109.755) rotate(64.8265) scale(94.4044 72.3879)">
<stop stop-color="#00AAEC" stop-opacity="0.89"/>
<stop offset="1" stop-color="#11499F"/>
</radialGradient>
</defs>
</svg>
